<svg xmlns="http://www.w3.org/2000/svg" viewBox="0 0 18.4 9.55"><defs><style>.cls-1{fill:#98aaac;}.cls-2{fill:#badae1;}.cls-3{fill:#858585;}</style></defs><g id="Camada_2" data-name="Camada 2"><g id="Ñëîé_1" data-name="Ñëîé 1"><path class="cls-1" d="M18.4,7.85V7.5a.21.21,0,0,1-.21-.21.22.22,0,0,1,.21-.21V6.89a.21.21,0,0,1-.21-.21.22.22,0,0,1,.21-.21V6.28a.21.21,0,1,1,0-.41v-.2a.21.21,0,1,1,0-.41V5.07a.22.22,0,0,1-.21-.21.21.21,0,0,1,.21-.21V4.46a.22.22,0,0,1-.21-.21A.21.21,0,0,1,18.4,4V3.85a.21.21,0,0,1-.21-.21.22.22,0,0,1,.21-.21V3.24a.21.21,0,1,1,0-.41v-.2a.21.21,0,1,1,0-.41V1.81A1.69,1.69,0,0,1,16.71.12H16.5a.2.2,0,0,1-.2.2.2.2,0,0,1-.21-.2h-.18a.2.2,0,0,1-.21.2.2.2,0,0,1-.2-.2h-.18a.2.2,0,0,1-.21.2.21.21,0,0,1-.21-.2h-.17a.21.21,0,0,1-.21.2.2.2,0,0,1-.21-.2h-.18a.2.2,0,0,1-.2.2.2.2,0,0,1-.21-.2h-.18a.2.2,0,0,1-.21.2.2.2,0,0,1-.2-.2H13a.2.2,0,0,1-.21.2.21.21,0,0,1-.21-.2h-.17a.21.21,0,0,1-.21.2.2.2,0,0,1-.21-.2h-.18a.2.2,0,0,1-.2.2.2.2,0,0,1-.21-.2h-.18a.2.2,0,0,1-.21.2.2.2,0,0,1-.2-.2h-.18a.2.2,0,0,1-.21.2.21.21,0,0,1-.21-.2H10a.21.21,0,0,1-.21.2.2.2,0,0,1-.21-.2H9.39a.2.2,0,0,1-.2.2A.2.2,0,0,1,9,.12H8.8a.2.2,0,0,1-.21.2.2.2,0,0,1-.2-.2H8.21A.2.2,0,0,1,8,.32a.21.21,0,0,1-.21-.2H7.62a.21.21,0,0,1-.21.2A.2.2,0,0,1,7.2.12H7a.2.2,0,0,1-.2.2.2.2,0,0,1-.21-.2H6.43a.2.2,0,0,1-.21.2A.2.2,0,0,1,6,.12H5.84a.2.2,0,0,1-.21.2.21.21,0,0,1-.21-.2H5.25A.21.21,0,0,1,5,.32a.2.2,0,0,1-.21-.2H4.65a.2.2,0,0,1-.2.2.2.2,0,0,1-.21-.2H4.06a.2.2,0,0,1-.21.2.21.21,0,0,1-.21-.2H3.47a.2.2,0,0,1-.21.2.21.21,0,0,1-.21-.2H2.88a.21.21,0,0,1-.21.2.2.2,0,0,1-.21-.2H2.28a.2.2,0,0,1-.2.2.2.2,0,0,1-.21-.2H1.7A1.7,1.7,0,0,1,0,1.81v.41a.21.21,0,0,1,.21.2A.21.21,0,0,1,0,2.63v.2A.21.21,0,0,1,.21,3,.21.21,0,0,1,0,3.24v.19a.22.22,0,0,1,.21.21A.21.21,0,0,1,0,3.85V4a.21.21,0,0,1,.21.21A.22.22,0,0,1,0,4.46v.19a.21.21,0,0,1,.21.21A.22.22,0,0,1,0,5.07v.19a.21.21,0,0,1,.21.21.21.21,0,0,1-.21.2v.2a.21.21,0,0,1,.21.2A.21.21,0,0,1,0,6.28v.19a.22.22,0,0,1,.21.21A.21.21,0,0,1,0,6.89v.19a.22.22,0,0,1,.21.21A.21.21,0,0,1,0,7.5v.35a1.7,1.7,0,0,1,1.7,1.7h.17a.21.21,0,0,1,.21-.21.2.2,0,0,1,.2.21h.18a.21.21,0,0,1,.21-.21.21.21,0,0,1,.21.21h.17a.21.21,0,0,1,.21-.21.21.21,0,0,1,.21.21h.17a.21.21,0,0,1,.21-.21.21.21,0,0,1,.21.21h.18a.21.21,0,0,1,.21-.21.2.2,0,0,1,.2.21h.18A.21.21,0,0,1,5,9.34a.21.21,0,0,1,.21.21h.17a.21.21,0,0,1,.21-.21.21.21,0,0,1,.21.21H6a.2.2,0,0,1,.2-.21.21.21,0,0,1,.21.21h.18a.21.21,0,0,1,.21-.21.2.2,0,0,1,.2.21H7.2a.21.21,0,0,1,.21-.21.21.21,0,0,1,.21.21h.17A.21.21,0,0,1,8,9.34a.21.21,0,0,1,.21.21h.18a.2.2,0,0,1,.2-.21.21.21,0,0,1,.21.21H9a.21.21,0,0,1,.21-.21.2.2,0,0,1,.2.21h.18a.21.21,0,0,1,.21-.21.21.21,0,0,1,.21.21h.17a.21.21,0,0,1,.21-.21.21.21,0,0,1,.21.21h.18a.2.2,0,0,1,.2-.21.21.21,0,0,1,.21.21h.18a.21.21,0,0,1,.21-.21.2.2,0,0,1,.2.21h.18a.21.21,0,0,1,.21-.21.21.21,0,0,1,.21.21h.17a.21.21,0,0,1,.21-.21.21.21,0,0,1,.21.21h.18a.2.2,0,0,1,.2-.21.21.21,0,0,1,.21.21h.18a.21.21,0,0,1,.21-.21.2.2,0,0,1,.2.21h.18a.21.21,0,0,1,.21-.21.21.21,0,0,1,.21.21h.17a.21.21,0,0,1,.21-.21.21.21,0,0,1,.21.21h.18a.2.2,0,0,1,.2-.21.21.21,0,0,1,.21.21h.18a.21.21,0,0,1,.21-.21.2.2,0,0,1,.2.21h.21A1.69,1.69,0,0,1,18.4,7.85Z"/><path class="cls-2" d="M18.4,7.74V7.38a.21.21,0,1,1,0-.41v-.2a.21.21,0,1,1,0-.41V6.17A.22.22,0,0,1,18.19,6a.21.21,0,0,1,.21-.21V5.56a.21.21,0,0,1-.21-.21.22.22,0,0,1,.21-.21V5a.21.21,0,1,1,0-.41v-.2a.21.21,0,1,1,0-.41v-.2a.21.21,0,1,1,0-.41V3.13a.22.22,0,0,1-.21-.21.21.21,0,0,1,.21-.21V2.52a.21.21,0,0,1,0-.42V1.7A1.69,1.69,0,0,1,16.71,0H16.5a.21.21,0,0,1-.2.21A.21.21,0,0,1,16.09,0h-.18a.21.21,0,0,1-.21.21A.21.21,0,0,1,15.5,0h-.18a.21.21,0,0,1-.21.21A.22.22,0,0,1,14.9,0h-.17a.22.22,0,0,1-.21.21A.21.21,0,0,1,14.31,0h-.18a.21.21,0,0,1-.2.21A.21.21,0,0,1,13.72,0h-.18a.21.21,0,0,1-.21.21.21.21,0,0,1-.2-.21H13a.21.21,0,0,1-.21.21A.22.22,0,0,1,12.53,0h-.17a.22.22,0,0,1-.21.21A.21.21,0,0,1,11.94,0h-.18a.21.21,0,0,1-.2.21A.21.21,0,0,1,11.35,0h-.18A.21.21,0,0,1,11,.21a.21.21,0,0,1-.2-.21h-.18a.21.21,0,0,1-.21.21A.22.22,0,0,1,10.16,0H10a.22.22,0,0,1-.21.21A.21.21,0,0,1,9.57,0H9.39a.21.21,0,0,1-.2.21A.21.21,0,0,1,9,0H8.8a.21.21,0,0,1-.21.21A.21.21,0,0,1,8.39,0H8.21A.21.21,0,0,1,8,.21.22.22,0,0,1,7.79,0H7.62a.22.22,0,0,1-.21.21A.21.21,0,0,1,7.2,0H7a.21.21,0,0,1-.2.21A.21.21,0,0,1,6.61,0H6.43a.21.21,0,0,1-.21.21A.21.21,0,0,1,6,0H5.84a.21.21,0,0,1-.21.21A.22.22,0,0,1,5.42,0H5.25A.22.22,0,0,1,5,.21.21.21,0,0,1,4.83,0H4.65a.21.21,0,0,1-.2.21A.21.21,0,0,1,4.24,0H4.06a.21.21,0,0,1-.21.21A.22.22,0,0,1,3.64,0H3.47a.21.21,0,0,1-.21.21A.22.22,0,0,1,3.05,0H2.88a.22.22,0,0,1-.21.21A.21.21,0,0,1,2.46,0H2.28a.21.21,0,0,1-.2.21A.21.21,0,0,1,1.87,0H1.7A1.7,1.7,0,0,1,0,1.7v.4a.22.22,0,0,1,.21.21A.22.22,0,0,1,0,2.52v.19a.21.21,0,0,1,.21.21A.22.22,0,0,1,0,3.13v.19a.21.21,0,0,1,.21.21.21.21,0,0,1-.21.2v.2a.21.21,0,0,1,.21.2A.21.21,0,0,1,0,4.34v.2a.21.21,0,0,1,.21.2A.21.21,0,0,1,0,5v.19a.22.22,0,0,1,.21.21A.21.21,0,0,1,0,5.56v.19A.21.21,0,0,1,.21,6,.22.22,0,0,1,0,6.17v.19a.21.21,0,0,1,.21.21.21.21,0,0,1-.21.2V7a.21.21,0,0,1,.21.21.21.21,0,0,1-.21.2v.36A1.7,1.7,0,0,1,1.7,9.43h.17a.2.2,0,0,1,.21-.2.2.2,0,0,1,.2.2h.18a.2.2,0,0,1,.21-.2.21.21,0,0,1,.21.2h.17a.21.21,0,0,1,.21-.2.2.2,0,0,1,.21.2h.17a.21.21,0,0,1,.21-.2.2.2,0,0,1,.21.2h.18a.2.2,0,0,1,.21-.2.2.2,0,0,1,.2.2h.18A.2.2,0,0,1,5,9.23a.21.21,0,0,1,.21.2h.17a.21.21,0,0,1,.21-.2.2.2,0,0,1,.21.2H6a.2.2,0,0,1,.2-.2.2.2,0,0,1,.21.2h.18a.2.2,0,0,1,.21-.2.2.2,0,0,1,.2.2H7.2a.2.2,0,0,1,.21-.2.21.21,0,0,1,.21.2h.17A.21.21,0,0,1,8,9.23a.2.2,0,0,1,.21.2h.18a.2.2,0,0,1,.2-.2.2.2,0,0,1,.21.2H9a.2.2,0,0,1,.21-.2.2.2,0,0,1,.2.2h.18a.2.2,0,0,1,.21-.2.21.21,0,0,1,.21.2h.17a.21.21,0,0,1,.21-.2.2.2,0,0,1,.21.2h.18a.2.2,0,0,1,.2-.2.2.2,0,0,1,.21.2h.18a.2.2,0,0,1,.21-.2.2.2,0,0,1,.2.2h.18a.2.2,0,0,1,.21-.2.21.21,0,0,1,.21.2h.17a.21.21,0,0,1,.21-.2.2.2,0,0,1,.21.2h.18a.2.2,0,0,1,.2-.2.2.2,0,0,1,.21.2h.18a.2.2,0,0,1,.21-.2.2.2,0,0,1,.2.2h.18a.2.2,0,0,1,.21-.2.21.21,0,0,1,.21.2h.17a.21.21,0,0,1,.21-.2.2.2,0,0,1,.21.2h.18a.2.2,0,0,1,.2-.2.2.2,0,0,1,.21.2h.18a.2.2,0,0,1,.21-.2.2.2,0,0,1,.2.2h.21A1.69,1.69,0,0,1,18.4,7.74Z"/><path class="cls-3" d="M17.6,2.24A2.38,2.38,0,0,1,16.1.67S8.93.57,6.5.57c-1,0-4.2.1-4.2.1A2.4,2.4,0,0,1,.7,2.27v4.9a2.36,2.36,0,0,1,1.6,1.6l5.25-.08,8.55.08a2.36,2.36,0,0,1,1.6-1.6V2.27ZM2.5,8.49C1.92,7,1,7.45,1,5.8V2.62A19.82,19.82,0,0,1,2.71,1c.67,0,1.35,0,2,0,2.34-.13,4.68,0,7,0,1.07,0,3.14-.42,4.15,0,.58,1.53,1.52,1,1.52,2.68V6.82a19.82,19.82,0,0,1-1.73,1.67h-2c-1.19,0-2.35-.13-3.53-.13C7.6,8.36,5,8.49,2.5,8.49Z"/><path class="cls-3" d="M7.11,5.83a1,1,0,0,1-.29.82.94.94,0,0,1-.46.22v.29H5.84v-.3a.91.91,0,0,1-.56-.44,1.47,1.47,0,0,1-.2-.68l.59,0a.87.87,0,0,0,.19.51.33.33,0,0,0,.25.12.42.42,0,0,0,.32-.2.54.54,0,0,0,.06-.27.77.77,0,0,0-.22-.51c-.13-.11-.31-.28-.55-.51a2.08,2.08,0,0,1-.41-.49,1.18,1.18,0,0,1-.16-.61,1.17,1.17,0,0,1,.15-.58.83.83,0,0,1,.54-.41V2.49h.52v.26A.94.94,0,0,1,6.77,3a1,1,0,0,1,.32.7l-.59.11a.7.7,0,0,0-.15-.39.27.27,0,0,0-.24-.1.27.27,0,0,0-.25.15.56.56,0,0,0-.07.3A.93.93,0,0,0,6,4.3a1.37,1.37,0,0,0,.27.25l.28.25a2.51,2.51,0,0,1,.35.45A1.21,1.21,0,0,1,7.11,5.83Z"/><path class="cls-3" d="M8,4a1.17,1.17,0,0,1,.31-.88A1,1,0,0,1,9,2.8a.92.92,0,0,1,.69.3,1,1,0,0,1,.28.71,1.9,1.9,0,0,1-.18.8,6.68,6.68,0,0,1-.48.74L9,5.79,8.9,6a2.83,2.83,0,0,0-.17.25l0,.06h1.2v.6H8V6.31a1.83,1.83,0,0,1,.13-.23c.05-.06.09-.13.14-.2l.16-.23c.1-.13.24-.34.44-.62a4.48,4.48,0,0,0,.43-.71,1.37,1.37,0,0,0,.11-.49.55.55,0,0,0-.1-.32A.38.38,0,0,0,9,3.38a.37.37,0,0,0-.36.29.79.79,0,0,0,0,.23v.16H8Z"/><path class="cls-3" d="M10.38,6.26H11v.62h-.62Z"/><path class="cls-3" d="M12.09,3.42v.87a.59.59,0,0,1,.26-.2.65.65,0,0,1,.2,0,.68.68,0,0,1,.6.29,1.2,1.2,0,0,1,.17.68V5.9a1,1,0,0,1-.29.74.9.9,0,0,1-.69.28.88.88,0,0,1-.67-.29A1,1,0,0,1,11.42,6v-.1l.58,0,0,.14a.37.37,0,0,0,.2.33l.11,0c.25,0,.37-.13.37-.39v-1a.37.37,0,0,0-.13-.29.24.24,0,0,0-.17-.06.27.27,0,0,0-.24.13.39.39,0,0,0-.07.23V5h-.61V2.8h1.79v.62Z"/><path class="cls-3" d="M16.53,6.84h-.86V6.71l.43-.22a2.43,2.43,0,0,1,.28-.14h-.71v-.1h.86v.12l-.43.22-.29.14h.72Zm-.61-1.08a.21.21,0,0,1,.23.21.21.21,0,0,1-.23.21A.21.21,0,0,1,15.69,6,.21.21,0,0,1,15.92,5.76Zm0,.33A.15.15,0,0,0,16.08,6c0-.07-.07-.11-.16-.11s-.16,0-.16.11S15.84,6.09,15.92,6.09Zm.35.06h-.06V5.8h.06Z"/><path class="cls-3" d="M16.1,5.54l-.75-.32V5h.75V4.93h.18V5h.25v.18h-.25v.32Zm0-.32h-.37l.37.15Z"/><path class="cls-3" d="M16.26,4.21a.27.27,0,0,1,.28.28h0a.27.27,0,0,1-.28.28h-.1A.25.25,0,0,1,16,4.71a.13.13,0,0,1-.06-.07.32.32,0,0,1-.12.11l-.12,0h-.06a.25.25,0,0,1-.19-.07.24.24,0,0,1-.09-.2h0a.25.25,0,0,1,.09-.2.25.25,0,0,1,.19-.07h.06a.25.25,0,0,1,.19.07l.05.06A.3.3,0,0,1,16,4.23a.22.22,0,0,1,.12,0Zm-.6.17a.16.16,0,0,0-.15.07.09.09,0,0,0,0,0,.14.14,0,0,0,0,.07l.06,0h.08l.11,0a.1.1,0,0,0,0-.09.11.11,0,0,0,0-.1Zm.52,0a.17.17,0,0,0-.14,0,.14.14,0,0,0,0,.07.1.1,0,0,0,.06.09l.1,0h.06a.15.15,0,0,0,.09,0,.09.09,0,0,0,0-.07.12.12,0,0,0-.07-.11h-.11Z"/><path class="cls-3" d="M16.26,3.48a.27.27,0,0,1,.28.28h0a.27.27,0,0,1-.28.28h-.1A.25.25,0,0,1,16,4a.13.13,0,0,1-.06-.07.32.32,0,0,1-.12.11l-.12,0h-.06A.25.25,0,0,1,15.42,4a.24.24,0,0,1-.09-.2h0a.25.25,0,0,1,.09-.2.25.25,0,0,1,.19-.07h.06a.25.25,0,0,1,.19.07l.05.06A.3.3,0,0,1,16,3.5a.22.22,0,0,1,.12,0Zm-.6.17a.16.16,0,0,0-.15.07.09.09,0,0,0,0,0,.14.14,0,0,0,0,.07.09.09,0,0,0,.06,0h.08l.11,0a.1.1,0,0,0,0-.09.11.11,0,0,0,0-.1Zm.52,0A.17.17,0,0,0,16,3.7a.14.14,0,0,0,0,.07.1.1,0,0,0,.06.09l.1,0h.06a.11.11,0,0,0,.09,0,.09.09,0,0,0,0-.07.1.1,0,0,0-.07-.1l-.05,0Z"/><path class="cls-3" d="M15.53,3.13h.25a.22.22,0,0,1-.06-.07s0,0,0-.06a.19.19,0,0,1,.08-.17.31.31,0,0,1,.2-.05h.26a.29.29,0,0,1,.21.08.25.25,0,0,1,.09.2.23.23,0,0,1-.09.19.28.28,0,0,1-.2.08h0V3.16h0a.14.14,0,0,0,.1-.06v0c0-.08,0-.11-.11-.11H16a.16.16,0,0,0-.09,0,.09.09,0,0,0,0,0s0,.06,0,.07a.11.11,0,0,0,.07,0h0v.18h-.64V2.79h.18Z"/></g></g></svg>