<svg xmlns="http://www.w3.org/2000/svg" viewBox="0 0 21.22 11.02"><defs><style>.cls-1{fill:#916f57;}.cls-2{fill:#a78c79;}.cls-3{fill:#f7f0e6;}.cls-4{fill:#d4b89e;}</style></defs><g id="Camada_2" data-name="Camada 2"><g id="Ñëîé_1" data-name="Ñëîé 1"><path class="cls-1" d="M21.22,1.12V.94A1,1,0,0,1,20.11,0h-19A1,1,0,0,1,0,.94v.18a.31.31,0,0,1,.33.29A.31.31,0,0,1,0,1.69v.18a.31.31,0,0,1,.33.28A.31.31,0,0,1,0,2.43v.19a.31.31,0,0,1,.33.28A.31.31,0,0,1,0,3.18v.18a.31.31,0,0,1,.33.29A.31.31,0,0,1,0,3.93v.18a.31.31,0,0,1,.33.28A.31.31,0,0,1,0,4.67v.18a.31.31,0,0,1,.33.29A.31.31,0,0,1,0,5.42V5.6a.31.31,0,0,1,.33.28A.31.31,0,0,1,0,6.17v.18a.28.28,0,1,1,0,.56v.18a.31.31,0,0,1,.33.29A.31.31,0,0,1,0,7.66v.18a.31.31,0,0,1,.33.28A.31.31,0,0,1,0,8.41v.18a.31.31,0,0,1,.33.28A.31.31,0,0,1,0,9.15v.18a.31.31,0,0,1,.33.29A.31.31,0,0,1,0,9.9v.18A1,1,0,0,1,1.11,11h19a1,1,0,0,1,1.11-.94V9.9a.29.29,0,1,1,0-.57V9.15a.31.31,0,0,1-.33-.28.31.31,0,0,1,.33-.28V8.41a.29.29,0,1,1,0-.57V7.66a.29.29,0,1,1,0-.57V6.91a.28.28,0,1,1,0-.56V6.17a.29.29,0,1,1,0-.57V5.42a.31.31,0,0,1-.33-.28.31.31,0,0,1,.33-.29V4.67a.31.31,0,0,1-.33-.28.31.31,0,0,1,.33-.28V3.93a.31.31,0,0,1-.33-.28.31.31,0,0,1,.33-.29V3.18a.31.31,0,0,1-.33-.28.31.31,0,0,1,.33-.28V2.43a.31.31,0,0,1-.33-.28.31.31,0,0,1,.33-.28V1.69a.31.31,0,0,1-.33-.28A.31.31,0,0,1,21.22,1.12Z"/><path class="cls-2" d="M20.12.13H1.1a.36.36,0,0,1,0,.1H20.14A.36.36,0,0,1,20.12.13Z"/><path class="cls-2" d="M1,.46A.76.76,0,0,1,.89.57H20.33a.76.76,0,0,1-.08-.11Z"/><path class="cls-2" d="M.33.9H20.89a1.19,1.19,0,0,1-.26-.11H.6A1.28,1.28,0,0,1,.33.9Z"/><path class="cls-2" d="M.26,1.23H21a.35.35,0,0,1,.21-.1H.05A.38.38,0,0,1,.26,1.23Z"/><path class="cls-2" d="M.27,1.57H21a.3.3,0,0,1-.06-.11H.33A.3.3,0,0,1,.27,1.57Z"/><path class="cls-2" d="M0,1.87a.32.32,0,0,1,.14,0H21.08a.32.32,0,0,1,.14,0V1.79H0Z"/><path class="cls-2" d="M.33,2.15a.19.19,0,0,1,0,.08H20.9a.19.19,0,0,1,0-.08v0H.33Z"/><rect class="cls-2" y="2.46" width="21.22" height="0.1"/><path class="cls-2" d="M.33,2.9H20.89a.43.43,0,0,1,0-.11H.31A.43.43,0,0,1,.33,2.9Z"/><path class="cls-2" d="M0,3.18v0H21.22v0A.38.38,0,0,1,21,3.13H.2A.46.46,0,0,1,0,3.18Z"/><path class="cls-2" d="M.32,3.56H20.9a.36.36,0,0,1,.07-.1H.25A.36.36,0,0,1,.32,3.56Z"/><path class="cls-2" d="M.15,3.9H21.07a.35.35,0,0,1-.13-.11H.28A.35.35,0,0,1,.15,3.9Z"/><path class="cls-2" d="M.27,4.23H21a.25.25,0,0,1,.16-.1H.11A.25.25,0,0,1,.27,4.23Z"/><path class="cls-2" d="M.26,4.56H21a.21.21,0,0,1-.06-.1H.32A.21.21,0,0,1,.26,4.56Z"/><path class="cls-2" d="M0,4.85a.34.34,0,0,1,.17.05H21.05a.34.34,0,0,1,.17-.05V4.79H0Z"/><path class="cls-2" d="M.33,5.14a.15.15,0,0,1,0,.09h20.6a.15.15,0,0,1,0-.09v0H.33Z"/><rect class="cls-2" y="5.46" width="21.22" height="0.1"/><path class="cls-2" d="M.33,5.88v0H20.89v0a.15.15,0,0,1,0-.09H.31A.15.15,0,0,1,.33,5.88Z"/><path class="cls-2" d="M0,6.17v.06H21.22V6.17a.34.34,0,0,1-.17,0H.17A.34.34,0,0,1,0,6.17Z"/><path class="cls-2" d="M.32,6.56H20.9a.21.21,0,0,1,.06-.1H.26A.21.21,0,0,1,.32,6.56Z"/><path class="cls-2" d="M.11,6.9h21A.31.31,0,0,1,21,6.79H.27A.31.31,0,0,1,.11,6.9Z"/><path class="cls-2" d="M.28,7.23H20.94a.35.35,0,0,1,.13-.11H.15A.35.35,0,0,1,.28,7.23Z"/><path class="cls-2" d="M.25,7.56H21a.36.36,0,0,1-.07-.1H.32A.36.36,0,0,1,.25,7.56Z"/><path class="cls-2" d="M0,7.84a.36.36,0,0,1,.2.06H21a.31.31,0,0,1,.19-.06v0H0Z"/><path class="cls-2" d="M.31,8.23h20.6a.36.36,0,0,1,0-.11H.33A.36.36,0,0,1,.31,8.23Z"/><rect class="cls-2" y="8.46" width="21.22" height="0.1"/><path class="cls-2" d="M.33,8.87v0H20.89v0a.19.19,0,0,1,0-.08H.32A.19.19,0,0,1,.33,8.87Z"/><path class="cls-2" d="M0,9.15v.08H21.22V9.15a.32.32,0,0,1-.14,0H.14A.32.32,0,0,1,0,9.15Z"/><path class="cls-2" d="M.33,9.56H20.89a.21.21,0,0,1,.06-.1H.27A.21.21,0,0,1,.33,9.56Z"/><path class="cls-2" d="M.05,9.89H21.17a.35.35,0,0,1-.21-.1H.26A.38.38,0,0,1,.05,9.89Z"/><path class="cls-2" d="M.6,10.23h20a1.19,1.19,0,0,1,.26-.11H.33A1.28,1.28,0,0,1,.6,10.23Z"/><path class="cls-2" d="M1,10.56H20.25a.39.39,0,0,1,.08-.1H.89A.39.39,0,0,1,1,10.56Z"/><path class="cls-2" d="M1.1,10.89h19a.36.36,0,0,1,0-.1H1.08A.36.36,0,0,1,1.1,10.89Z"/><path class="cls-3" d="M11.63,7.81a.57.57,0,0,1,.14-.4.45.45,0,0,1,.32-.12.41.41,0,0,1,.31.14.44.44,0,0,1,.13.32.94.94,0,0,1-.08.36c0,.06-.11.17-.22.33l-.13.2,0,.07a.88.88,0,0,0-.07.12v0h.54v.27h-.88V8.87l.06-.1.06-.09.08-.11L12,8.3A1.45,1.45,0,0,0,12.21,8a.44.44,0,0,0,0-.22.23.23,0,0,0,0-.14.18.18,0,0,0-.14-.06.18.18,0,0,0-.16.13.37.37,0,0,0,0,.11v.07h-.28Z"/><path class="cls-3" d="M12.72,8.85H13v.28h-.27Z"/><path class="cls-3" d="M14.06,8.71a.46.46,0,0,1-.13.31.46.46,0,0,1-.62,0,.46.46,0,0,1-.13-.31v-1a.44.44,0,0,1,.13-.31.42.42,0,0,1,.31-.13.4.4,0,0,1,.31.13.42.42,0,0,1,.13.31Zm-.29-1a.13.13,0,0,0,0-.11.14.14,0,0,0-.11,0,.17.17,0,0,0-.16.16v1a.14.14,0,0,0,.05.11.13.13,0,0,0,.11,0,.17.17,0,0,0,.16-.16Z"/><path class="cls-3" d="M15.17,8.71A.42.42,0,0,1,15,9a.46.46,0,0,1-.62,0,.46.46,0,0,1-.13-.31v-1a.44.44,0,0,1,.13-.31.42.42,0,0,1,.31-.13A.4.4,0,0,1,15,7.4a.42.42,0,0,1,.13.31Zm-.29-1a.15.15,0,0,0,0-.11.18.18,0,0,0-.12,0,.16.16,0,0,0-.11,0,.15.15,0,0,0,0,.11v1a.14.14,0,0,0,0,.11.13.13,0,0,0,.11,0,.15.15,0,0,0,.12,0,.14.14,0,0,0,0-.11Z"/><path class="cls-3" d="M11.07,8.37a.33.33,0,0,1-.1.26.26.26,0,0,1-.15.07v.1h-.17V8.7a.28.28,0,0,1-.18-.14.4.4,0,0,1-.06-.22l.19,0a.3.3,0,0,0,.06.17.09.09,0,0,0,.08,0,.12.12,0,0,0,.1-.07.11.11,0,0,0,0-.08.25.25,0,0,0-.07-.17l-.18-.16a1.31,1.31,0,0,1-.13-.16.46.46,0,0,1-.05-.2.41.41,0,0,1,.05-.19.27.27,0,0,1,.17-.13V7.29h.17v.08a.23.23,0,0,1,.13.07.31.31,0,0,1,.11.22l-.19,0a.39.39,0,0,0,0-.13.1.1,0,0,0-.08,0,.09.09,0,0,0-.08,0,.13.13,0,0,0,0,.09.28.28,0,0,0,.07.19L10.8,8l.09.08a1.31,1.31,0,0,1,.12.15A.82.82,0,0,1,11.07,8.37Z"/><polygon class="cls-4" points="6.42 9.98 6.42 9.97 6.42 9.97 6.42 9.98"/><polygon class="cls-4" points="13.44 1.5 13.43 1.5 13.43 1.5 13.44 1.5"/><path class="cls-4" d="M14.78,1.5h0Z"/><path class="cls-3" d="M11.73,1.37l-.08,0S11.7,1.41,11.73,1.37Z"/><path class="cls-3" d="M12,1.41v0H12l0,0S12,1.43,12,1.41Z"/><path class="cls-3" d="M12.44,1.43s0,0,0,0,0,0,0-.05h0l0,0Z"/><path class="cls-3" d="M14.59,1.24h-.06l0,0v0l-.12,0h.15Z"/><path class="cls-3" d="M15.24,1.2h0s0,0,0,0v0S15.23,1.22,15.24,1.2Z"/><path class="cls-3" d="M8.12,1.4l-.1,0A.07.07,0,0,0,8.12,1.4Z"/><path class="cls-3" d="M4.46,1.41h0l-.12,0v0S4.43,1.45,4.46,1.41Z"/><path class="cls-3" d="M10.37,1.21l-.08,0S10.36,1.25,10.37,1.21Z"/><path class="cls-3" d="M11.05,1.41a.07.07,0,0,0,.08,0l-.08,0h0Z"/><path class="cls-3" d="M3.37,1.24h0l.07,0s0,0-.08,0l0,0Z"/><polygon class="cls-3" points="10.43 9.92 10.43 9.92 10.43 9.92 10.43 9.92 10.43 9.92"/><path class="cls-3" d="M10.43,9.9v0l.09,0S10.46,9.9,10.43,9.9Z"/><path class="cls-3" d="M16.71,9.9l-.05,0a.13.13,0,0,1,0-.05.23.23,0,0,0-.05.05l0,0h0Z"/><polygon class="cls-3" points="7.89 1.21 7.89 1.21 7.89 1.21 7.89 1.21"/><path class="cls-3" d="M19.46,1.37a.05.05,0,0,0,0,0s0,0,0,0l.06,0Z"/><path class="cls-3" d="M18.06,1.41H18v0Z"/><path class="cls-3" d="M17.48,1.38h-.05s0,0,0,0S17.47,1.42,17.48,1.38Z"/><polygon class="cls-3" points="16.68 9.92 16.68 9.92 16.68 9.92 16.68 9.92"/><path class="cls-3" d="M8,1.22H7.89v0S8,1.25,8,1.22Z"/><path class="cls-3" d="M10.27,9.88l0,0h.09Z"/><path class="cls-3" d="M2.89,1.41l.07,0v0l-.07,0Z"/><path class="cls-3" d="M10.55,9.9h.08s0,0,0,0Z"/><path class="cls-3" d="M8.63,9.9l0,0-.08,0S8.61,9.91,8.63,9.9Z"/><path class="cls-3" d="M15.8,9.87h-.12A.09.09,0,0,0,15.8,9.87Z"/><path class="cls-3" d="M7.82,9.87s0,0,0,0h0Z"/><path class="cls-3" d="M13.39,9.91h0l0-.06S13.39,9.88,13.39,9.91Z"/><path class="cls-3" d="M2.17,9.87s0,0,0,0a.11.11,0,0,1,.07,0A0,0,0,0,0,2.17,9.87Z"/><path class="cls-3" d="M2.58,1.23h.06l-.12,0h0l.06,0Z"/><path class="cls-3" d="M2.91,1.27l-.09,0s0,0,0,0l.09,0Z"/><path class="cls-3" d="M2.25,9.91s0,0,.1,0l-.05,0Z"/><path class="cls-3" d="M6.83,9.92l.09,0S6.84,9.88,6.83,9.92Z"/><path class="cls-3" d="M5.7,9.9H5.64v0l.09,0,0-.05Z"/><path class="cls-3" d="M3.67,9.68h.09v0Z"/><path class="cls-3" d="M19.77,8.54l0,0a.08.08,0,0,0,0,0l0,0h0l0,0h.06l-.07-.06.07,0,0-.06,0,0s0,0,0,0l0,0,0,0s0,0,0,0l0,0L19.73,8h.05s0-.06,0-.07.05,0,0,0,0,0,0,0a0,0,0,0,0,0,0s0,0,0,0h-.05l.05,0a.13.13,0,0,1,0-.06s0,0,0,0h0l.07,0s0-.07,0-.1v0h0s0,0,0,0,0,0,0,0l0,0a.25.25,0,0,0,0-.09h-.05l0,0v0l0,0V7.17h0l0,0h0v0h0V7h-.05l.05,0s0-.09,0-.13h0a0,0,0,0,1,0,0s0-.07,0-.11H19.7v0h0s0,0,0,0,0,0,0,0l0,0h0v0s0,0,0-.06,0,0,0-.08,0,0,0,0h0a.08.08,0,0,1,0,0l0,0,0,0,0,0s0,0,0,0,0,0,0-.09l0,0c-.08,0,0,0,0-.06V6h0s0,0-.05-.07.05,0,.05-.07l0-.08h0s0-.07,0-.11l0,0v0h0c.05,0,.05,0,0-.09a0,0,0,0,1,0,0s0,0,0,0l.05-.07c-.05,0,0,0,0-.08h0s0,0,0,0,0,0,0,0a.1.1,0,0,0,0-.15l0,0s0,0,0,0l0,0h0l-.05,0,0,0h0l-.08-.06c.11,0,.09-.09.08-.15h0v0h-.07l.07,0v0h-.05l.05,0h0s0,0,0,0v-.1l-.05,0,0,0h0l0,0,0,0,0,0-.05-.07c.07,0,0,0,.05,0l0,0s0,0,0,0a.07.07,0,0,1,0,0h0V4h0l0-.08V3.81a.08.08,0,0,1-.09,0l.07,0s0,0,0,0,0,0,0,0,0-.07,0-.11,0,0,0,0l0,0s.05-.06,0-.08h.05s0,0,0,0,0-.06,0-.09,0-.05,0-.05,0,0,0,0,0-.09,0-.11a.09.09,0,0,0,0,0l-.05,0,.05,0h0a.45.45,0,0,1,0-.11h-.06a.17.17,0,0,1,.06-.06l-.07,0h0l.06,0v0s0,0,0-.06a0,0,0,0,0,0,0l0,0s0,0,0,0,0,0,0,0a0,0,0,0,0,0,0h0a.08.08,0,0,0,0,0s0,0-.05,0l.07,0h0v0l-.07,0h.07l-.06,0,.05,0s0,0,0,0h0l0,0,.05,0s0,0,0,0,0,0,0,0a0,0,0,0,0,0,0V2l0,0h0s0,0,0,0,0,0,0-.05l0,0h0l0,0s0-.07,0-.07,0-.05,0-.06-.06,0-.11,0h0l.1,0s0-.07-.08-.08h0l-.07,0h0l0,0,0,0-.11-.06,0,0s0,0,0,0l0,0c0-.06,0-.07-.06-.07s0,0,0,0l-.07,0s0,0,0,0h0s0,0,0,0l-.08,0H19l.05,0s0,0-.05,0h0s-.05,0-.08,0a0,0,0,0,1,0,0h-.06l0,0h0l-.13,0H18.4l0,0h-.12l0,0h-.21l-.1,0s0,0,0,0h-.16s0,0,0,0l-.05,0v0h0s-.07,0-.09,0l-.12,0h0v0l-.11,0c0,.05,0,.05-.09,0h0a.41.41,0,0,0-.19,0l0,0,0,0a.14.14,0,0,0-.14,0s0,0,0,0a.1.1,0,0,1,0,0l-.12,0h0a0,0,0,0,1,0,0h-.05s0,0,0,0a0,0,0,0,1,0,0,.25.25,0,0,1-.09,0s-.06,0-.09,0h0s0,0,0,0h0s0,0,0,0a.08.08,0,0,0-.08,0H16.4l-.07,0s0,.05,0,0,0,0-.05,0a0,0,0,0,1,0,0c-.08,0-.15,0-.23,0h0s0,0-.06,0l-.05,0h-.19l0,0s0,0-.07,0,0,0-.06,0h-.2v0c.05,0,.05,0,0,0h-.05s0,0,0,0l0,0h-.16s0,0-.05,0l-.13,0,0,.07,0,0h0l0,0a.47.47,0,0,0-.17,0s0,0,0,0,0,0,0,0h-.07v0h0a.85.85,0,0,0-.16,0,.75.75,0,0,1-.15,0,.26.26,0,0,0-.15,0s-.09,0-.13,0l-.15,0h0s-.05,0-.07,0,0,0,0,0h0v0s0,0,0,0h-.18a1,1,0,0,1-.17,0h0s0,0,0,0a.23.23,0,0,0-.14,0h0v0h0s-.06,0-.07,0,0,0-.07,0,0,0,0,0h0l-.11,0h0l-.07,0v0h0s0,0,0,0a0,0,0,0,0,0,0h0l0,0v0a.14.14,0,0,1-.11,0s-.08,0-.09,0,0,0,0,0l0,0-.13,0h0s0,0,0,0,0,0,0,0h-.07c0,.05,0,.05-.07,0l0,0h0l-.15,0h0l0,0h0s-.09,0-.12,0-.08,0-.12,0a.1.1,0,0,1,0,0l-.09,0,0,0h-.05l-.06,0s-.05,0-.06,0h-.3v0s-.06,0-.1,0,0-.05-.07,0a0,0,0,0,1,0,0l0,0h-.15a0,0,0,0,0,0,0s-.05,0-.08,0l0,0h-.08s0,0,0,0h-.1s-.06,0-.08,0h0v0h0a.34.34,0,0,1-.1,0c-.06,0-.06,0-.1,0s0,0-.06,0v0H10.1s0,0,0,0H9.91l0,0s-.08,0-.1,0-.11,0-.16,0H9.5s0,0-.05,0H9.32l.07,0h0c-.05,0-.1,0-.15,0H9.3a.14.14,0,0,0-.14,0s-.05,0-.08,0H8.82s0,0,0,0H8.6s-.07,0-.11,0,0-.05,0-.05l-.11,0s-.06,0-.07,0h0l0,0H7.92a0,0,0,0,0,0,0H8s-.06,0-.09,0v0h0a.08.08,0,0,0,0,0l0,0c-.06,0-.13,0-.19,0H7.51s0,0,0,0a.65.65,0,0,1-.14,0s-.07,0-.09,0l-.06,0s0,0,0,0h0l-.08,0H7l0,0s0,0,0,0l0,0H6.76l-.1,0h0l0,0H6.63v0H6.56s0,0,0,0h0s0,0,0,0a0,0,0,0,0,0,0s-.09,0-.14,0a1.92,1.92,0,0,1-.24,0v.05l-.1,0a.08.08,0,0,1-.09,0s0,0,0,0h0l0,0h0l0,0H5.52v0h0l-.11,0a.21.21,0,0,0-.08,0,.19.19,0,0,0-.13,0,.14.14,0,0,1-.09,0L5,1.18H5s0,0,0,0l.13,0H5a.1.1,0,0,0,0,0H4.61c-.08,0-.15.05-.23,0s0,0,0,0,0,0-.06,0H4.16s-.06,0-.1,0,0,0,0,0,0,0-.06,0H3.91s-.06,0-.1,0a.09.09,0,0,0-.11,0v0l0,0a.05.05,0,0,0-.08,0s0,0,0,0a.27.27,0,0,1-.09,0H3.24l0,.05h0a.08.08,0,0,1,0,0H3.13S3,1.24,3,1.2H3.1a.43.43,0,0,0-.16,0l-.12,0-.08,0v0s0,0,0,0,0,0,0,0H2.71c0,.06,0,.05,0,.08h0l0-.05-.06,0H2.51a0,0,0,0,0,0,0s0,0,0,0H2.19l-.08,0h0a.12.12,0,0,0-.08,0l-.12,0-.09.05h0a0,0,0,0,0-.06,0l0,0-.06,0,.05.05s-.07,0-.09,0h0s0,0-.06,0,0,0,0,0l-.05,0s0,0,0,0,0,0,0,0a.35.35,0,0,0,0,.06l0,0h0s0,0,0,0h0v0h0s0,0,0,.05a.14.14,0,0,1,0,.07H1.5s-.06,0-.05.05V2l0,0a.08.08,0,0,0,0,0,0,0,0,0,0,0,0h0s0,0,0,.06h0l0,0h0v.07s0,0,0,0h0l-.07,0s0,.05,0,.08h0c0,.06,0,.11,0,.15v0h0s0,.06,0,.1,0,0,0,0,0,.06,0,.09,0,0,.08.06L1.44,3h0l.05,0,0,0,.06,0H1.45l0,0H1.44l.05,0h0l0,.07,0,0h.06l-.07,0,0,0h0l0,.06s0,0,0,.11l0,0,0,0,.07,0s-.08,0,0,.05a0,0,0,0,0,0,0l0,0a.25.25,0,0,0,0,.07h0v0h0s0,0,0,0,0,0,0,0,0,0,0,.06,0,.06,0,.08h0s0,0,0,.06h0s0,0,0,.06h0v0l.05,0-.06,0,.06,0-.05,0V4.5l.07,0,0,.06h0V4.6l0,0h0l0,0s-.06,0,0,0H1.5c-.06,0-.06.06-.05.1h0a.05.05,0,0,0,0,0s0,0,0,0h.06s0,0,0,0h0l0,0V5H1.5s0,0,0,0h0s0,.07,0,.09l0,0h0a.08.08,0,0,1,0,0h0c.05,0,.06,0,0,.07s0,0,0,0a.66.66,0,0,0,0,.14,0,0,0,0,0,0,0s0,0,0,0,0,.09,0,.12H1.44l0,.06s0,0,0,.06,0,0,0,0,0,0,0,0,0,.09.05.1L1.45,6l0,0h0s0,0,0,.06H1.5l-.06,0a.18.18,0,0,0,.05.07H1.44a.13.13,0,0,1,0,.06.08.08,0,0,0,0,.08v0h0l0,0a0,0,0,0,1,0,0l-.06,0h0a.14.14,0,0,1,0,.06h.05v0H1.44s0,0,.05,0a.1.1,0,0,0,0,0h0s0,0,0,0,0,0,0,0h0s0,0,0,0a0,0,0,0,0,0,0v.14a.22.22,0,0,0,0,.08s0,0,0,0l0,0s-.07,0-.06,0,0,0,0,0h0l0,0s0,0,0,.07,0,0,0,0,0,0,0,0h0v0h0l0,0s0,0,0,0,0,0,0,0l0,.09.05,0h0v0s0,0,0,.07h0l.06,0H1.45s0,0,0,.06,0,0,0,0h0a.35.35,0,0,1,0,.06h0l.05,0a.1.1,0,0,0-.06.11L1.5,8h0L1.44,8h0v.07l.07,0s-.06,0-.06,0l.06,0s-.05,0-.08,0l0,0h0s0,0,0,0,0,0-.06,0,.06,0,.1.05,0,0-.05,0,0,0-.05,0,0,.05,0,.08h0s0,0,0,.05a0,0,0,0,0,0,0v.14h0l0,0,0,0h0v.12l0,0,0,0h0l.06,0h0l-.07,0,.05,0L1.44,9l.05.06s-.05,0,0,.06v.08h.06l0,0h0s-.05,0,0,0,0,.05,0,.08h0c0,.07,0,.07,0,.11s0,.07,0,.1h0a.13.13,0,0,0,0,.05l.05,0h0l0,0s0,0,.08,0h0a.06.06,0,0,1-.05,0v0l.09.07h0l0,0s.1,0,.09,0l.07,0H2v0H2.1s0,0,0,0H2.5s0,0,0,0,0,0,0,0h.14s0,0,.05,0,.06,0,.09,0a0,0,0,0,1,0,0s0,0,0,0l.11,0v0h0a.13.13,0,0,0,.13,0l-.1,0s.05,0,.07,0H3l0,0H3l.19,0s0,0,0,0h.44v0h0l.11,0h0s0,0,.08,0l0,0H4s0,0,.06,0h.07l0,0,0,0H4.5v0h0l0,0a.08.08,0,0,0,0,0l0,0h0l.11,0a.08.08,0,0,1,.08,0,.11.11,0,0,1-.07.06h.15v0h0l0,0h.46v0l.12,0h.39l.1,0,0,0,0,0h.26s0,0,0,0h0l0,0h.26s.06,0,.08,0h0l.07,0s0,0,.09,0l0,0h0a.29.29,0,0,0,.13,0,0,0,0,0,1,.06,0s0,0,.06,0H7l0,0c.05-.05.08,0,.13,0h0s0,0,.07,0h0s.07,0,.1,0,0,0,.07,0l0,0s.06,0,.07,0h0v0h.07s.08,0,.12,0h0s0,0,0,0h0l.16,0,.17,0H8s0,0,.05,0a0,0,0,0,1,.05,0h0s.08,0,.12,0l0,0h0a.14.14,0,0,1,.11,0s.07,0,.08,0,0,0,.06,0,.06,0,.1,0h0c0,.05.09,0,.14,0h0s0,0,0,0l.08,0h.36s.08,0,.09,0,.05,0,.08,0H9.5l.08,0h.14l0,0h.07a.34.34,0,0,1,.2,0h.35s0,0,0,0h0v0s.06,0,.09,0l-.09,0h0s0,0,0,0h.26l.16,0h0s.06,0,.08,0v0h0s0,0,.06,0h0l0,0H11l.12,0,.09,0s0,0,0,0l0,0,.08,0s0,0,.08,0h0l0,0h0l.07,0h0s0,0,.06,0h.07l.07,0h.09a.07.07,0,0,0,.1,0l.05,0h.13l0,0h0l-.06,0,.1,0v0l.18,0v0h.06l0,0h.14l0,0h0l.06,0h.1c.08,0,.12,0,.14,0h0l.07,0,.09,0h0s.06,0,.07,0,.08,0,.12,0a.12.12,0,0,0,.08,0s.05,0,.08,0h0l0,0h.17V9.86c.06,0,.08,0,.06.08h.29a.11.11,0,0,1,.11,0h.14l.11,0s0,0,0,0h.2s0,0,.05,0a.08.08,0,0,1,0,0h.26c.06,0,.11,0,.16,0s0,0,0,0h0v0h.45a.16.16,0,0,0,.16,0h.06s0,0,0,0h-.05v0H16s0,0,.06,0h0l.11,0h0l-.05,0h.07s0,0,0,0h.07l0,0,0,0s.06,0,.06,0,0,0,0,0,0,0,.06,0h0v0s0,0,.07,0h0l.11,0h0l0,0a.23.23,0,0,1,.05-.05.13.13,0,0,0,0,.05l.05,0,0,0h0v0H17c.06,0,.13,0,.18,0h.07s.07,0,.1,0l.25,0a.14.14,0,0,1,.11,0h0l.06,0h.38a.06.06,0,0,0,.07,0l0,0h0l0,0,.06,0v0l.18,0h0l0,0,.12,0s0,0,0,0,.07,0,.1,0h.11s.07,0,.11,0h0l0,0s0,0,0,0h0l0,0h.17v0h.06l0,0s.06-.05.09,0l.09-.07h0a0,0,0,0,0,0-.07h.13l.06-.08s0,0,0-.08,0,0,0,0,.07,0,.09,0V9.43h0l.07,0,0,0,0,0v0s0,0,0-.08h.05c0-.05,0-.05,0-.06l-.05,0,.05,0s0-.08,0-.12a.19.19,0,0,0,0-.08h0s.06,0,.06,0h0s0,0,0,0,0-.08,0-.12l0,0,0,0h.05S19.74,8.57,19.77,8.54Zm-.35-7.19a.05.05,0,0,1,0,0v0l-.06,0S19.41,1.34,19.42,1.35Zm-1.36,0h0l-.1,0v0Zm-.63,0h.05s0,0-.07,0S17.42,1.39,17.43,1.37ZM15.2,1.19h0s0,0-.05.05v0S15.19,1.2,15.2,1.19Zm-.64,0v0l0,0h-.09Zm-2.11.2h.05s0,0,0,.05,0,0,0,0h0l0,0ZM12,1.4H12v0s-.07,0-.09,0Zm-.25,0s-.06,0-.08,0Zm-.68,0,.08,0a.07.07,0,0,1-.08,0h0Zm-.68-.18s0,0-.08,0ZM8.12,1.4a.07.07,0,0,1-.1,0Zm-3.66,0h0s-.08,0-.11,0v0Zm-1-.17-.07,0h0l0,0C3.42,1.19,3.43,1.2,3.44,1.23ZM3,1.37v0l-.07,0h0Zm-.13-.13.09,0v0l-.09,0S2.81,1.25,2.82,1.24Zm-.3,0,.12,0H2.58l-.06,0ZM2.2,9.93a.11.11,0,0,0-.07,0s0,0,0,0A0,0,0,0,1,2.2,9.93Zm0,0h0l.05,0C2.29,9.94,2.29,9.94,2.25,9.91ZM3.67,9.7h.08v0Zm2,.23v0H5.7v0l0,.05Zm1.19,0s0,0,.09,0Zm1.11,0H7.85s0,0,0,0h.12Zm.69,0s0,0-.06,0l.08,0Zm1.65,0h0l0,0,.07,0h-.06Zm.34,0h0s0,0,0,0Zm2.8,0h0s0-.05,0-.05Zm2.26,0h.12A.09.09,0,0,1,15.68,9.88Zm3.88-5.75h0v.07s0,0,.06,0l-.06,0,0,0h0l0,0-.05.09h.06l0,0,0,.06h0l0,0s-.05,0,0,.06v0h0a.11.11,0,0,1,0,0l.05,0h-.05a.2.2,0,0,0,0,.18h0V5s0,0,0,0,0,0,0,0l0,0,0,.06a0,0,0,0,1,0,0s0,.06,0,.08,0,0,0,.07a0,0,0,0,1,0,0l.08.05h-.07v.12h0a.11.11,0,0,0,0,0l.07,0-.07.07s0,0,0,.05l0,0s0,0,0,0l0,0v.14a0,0,0,0,0,0,0l.05,0h-.07V6s0,0,0,0l0,0,.08.08h-.07s0,0,0,0a.08.08,0,0,0,0,0l0,0s0,.07,0,.08h0a.08.08,0,0,0,0,.06.29.29,0,0,0,0,.09h0s0,0-.06,0l0,0h0s0,0,.06,0-.06,0,0,.09a.39.39,0,0,0,0,.26s0,.07,0,.08,0,0,0,0h0s0,0,0,0l0,0h0s0,.06,0,.08l0,.06h0l0,0h0a.25.25,0,0,1,0,.07h0v0l0,0H19.5l0,0s0,0,0,0-.07,0,0,0,0,.07,0,.1h0v.08h0l0,0h0a.38.38,0,0,0,0,.1h.05l0,0a.07.07,0,0,0,0,.06l0,.07h0s0,0,0,0,0,.07,0,.08,0,.06,0,.1a.32.32,0,0,0,0,.09h0l0,0a.05.05,0,0,1,0,0h0s0,0,0,0a.15.15,0,0,1,0,.07v.2s0,0,0,0l0,0,0,0,0,0s0,0,.06,0l-.06,0,0,0c0,.06,0,.06,0,.17h0a.05.05,0,0,0,0,0h0l0,.09h.09l-.1,0a.46.46,0,0,1,.07.07H19.5s0,0,0,.05l0,0,0,0v0l-.05,0s.07,0,.11,0l-.12,0v0l-.09,0s0,0,0,0l-.08,0-.1,0H19v0h-.1s-.09,0-.13,0l-.08,0h0l.08,0h-.23l-.05,0h0v0h0c0,.06-.07,0-.11,0v0s-.06,0-.06,0l-.08,0v0h.06a.05.05,0,0,0-.08,0H17.14l0,0s-.05,0-.09,0,0,0,0,0h-.49v0c-.06,0-.11-.06-.16,0l-.1,0c0,.05-.05,0-.08,0H16.1l-.1,0v0h-.16v0h-.11l-.14,0s0,0,0,0l-.1,0h-.06l-.07,0s0,0,0,0h0v0s0,0,0,0-.05,0-.08,0h0s-.08,0-.12,0l0,0h0s0,0-.07,0,0,0-.06,0h0a0,0,0,0,1,0,0s-.11,0-.16,0-.06,0-.06,0h-.08v0H14s-.06,0-.07,0h0a.1.1,0,0,0-.1,0l-.05,0h-.14l0,0,0,0,0,0h-.38s.07,0,.11,0h0l0,0h-.15l-.17,0h.07s0,0,0,.05l0,0h0a.64.64,0,0,0,0-.07H13a.17.17,0,0,0-.14,0h-.3s0,0-.06,0h0l-.11,0,0,0h-.05l-.18,0,0,0h0v0H12l0-.05H12c-.05,0-.09,0-.13,0h0l.07,0a.06.06,0,0,1-.08,0,.27.27,0,0,0-.16,0h-.14v0a.13.13,0,0,0-.1,0h-.24s0,0-.06,0h0c-.06,0-.12,0-.18,0s-.06,0-.09,0h-.13s0,0,0,0H10.4l-.07,0h-.14a.5.5,0,0,0-.12,0s0,0-.06,0l.12,0H9.58l0,0-.09,0H9.18s0,0,0,0h0v0h0s0,0,0,.05a0,0,0,0,0-.06,0H9s0,0-.06,0,0,0,0,0h-.1l0,0h0l-.15,0h0l.05,0c-.06,0-.06,0-.1,0H8.55v0h0v0H8.32l0,0s-.09,0-.14,0l-.05,0h0l-.12,0v0H7.68s0,0-.07,0H7.55v0H7.45l-.09,0-.08,0h0s0,0,0,0H6.9l-.07,0v0H6.61s0,0,0,0l0,0H6.32s0,0,0,0,0,0,0,0H6.11s-.05,0-.07,0H5.79a.37.37,0,0,1-.18,0H5.44a.67.67,0,0,1-.2,0h0l.06,0s-.06,0-.09,0h0s-.06,0-.08,0v0a.15.15,0,0,1-.11,0H5s0,0-.06,0h0s0,0,.07,0h-.2s0,0,0,0a.12.12,0,0,0-.1,0l0,0h0s-.05,0-.09,0l0,0-.11,0v0c-.06,0-.11,0-.15,0s-.06,0-.09,0,0,0,0,0h0a.1.1,0,0,1-.07,0H4s0,0,0,0l-.06,0H3.58l0,0h0s0,0-.05,0a.06.06,0,0,1-.08,0l.07,0H3.38a2.44,2.44,0,0,0-.27,0H3s0,0,0,0h0v0a1.37,1.37,0,0,1-.19,0l0,0H2.67l0,0h0s0,0,0,0l0,0s0,0,0,0l.05,0H2.42l.06,0H2.34a0,0,0,0,0,0,0,.83.83,0,0,0-.22,0v0L2,9.64,2,9.59s-.05,0-.09,0h.07c-.07-.05-.11-.12-.2-.14l.06,0-.08,0v0H1.66l0,0h0s0,0,0-.07H1.64v0H1.7s0-.06,0-.09,0,0,0,0l0,0h0l0,0C1.71,9,1.7,9,1.65,9s0,0,.05,0,0,0-.05,0l.06,0-.06,0H1.7a.06.06,0,0,0,0-.08l0,0a.28.28,0,0,0,0-.09h0v0h0v0h0s0,0,0,0h0s0-.06,0-.09h0l0-.05,0,0h0l.05,0h0l0,0-.05,0h0a.11.11,0,0,0-.05-.14s.06,0,0,0h0a.05.05,0,0,1,0,0s0,0,0,0h0l0,0H1.65l.05,0s0,0,0,0h0V7.8H1.66l0,0,0,0h0v0h0s0,0,0-.07v0h0s0,0,0-.06l0,0v0l-.05,0h.05s0-.07-.05-.08h.05s0,0,0-.06,0,0-.05,0l0,0h0s0,0,0,0,0,0,0-.06,0,0,0,0,0,0,0,0h0a.14.14,0,0,0,0-.06h.06l0,0,0-.06H1.65l.06,0a.31.31,0,0,0,0-.08s0,0,0-.06h0l0,0H1.63s.09,0,.08-.09l-.05,0,0,0h0l0,0h.05c0-.08,0-.08-.05-.1l0,0s0-.09-.06-.09l.08,0V6.36l-.07,0h.07s0-.06,0-.09h0l0,0H1.64l.07,0h0l-.06,0h.06l-.06,0,.06,0V6H1.65s.06,0,.06-.06a.25.25,0,0,1,0-.09s0,0,0-.08l0,0,.05,0v0h0s0,0,0-.08h0a.19.19,0,0,0,0-.07h0s0,0,0-.06l0,0,0,0a0,0,0,0,0,0-.08l0,0,0,0,0,0s0,0,0,0,0,0,0,0a.09.09,0,0,0,0,0V5s0-.11,0-.16l-.05,0h0c0-.05,0-.1,0-.15H1.66v0h0l0,0a.22.22,0,0,0,0-.08V4.47s0,0,0,0,0,0,0,0h0l0,0,0,0c.07,0,0-.1.05-.15s-.05,0-.08,0l.05,0,0,0h0s0,0,0-.08,0,0-.06-.06L1.7,4s0,0,0,0l0,0,0,0a.94.94,0,0,1,0-.09l0,0s0,0,0-.06h0l0,0c.06,0,0-.08,0-.12a.22.22,0,0,0,0-.11s0-.07,0-.11H1.64v0h.05V3.27h0s0-.06,0-.09l-.06,0h.06s0-.05,0-.07,0-.11,0-.12V2.9h0s0,0,.05,0V2.72h0l0,0-.06,0,.06,0V2.49H1.65v0h.06l0,0h0l0,0,0,0,0,0h0s0-.1,0-.13a.08.08,0,0,0,0,0H1.65s.07,0,.06-.08L1.63,2,1.7,2a.19.19,0,0,1,0-.08s0-.1,0-.15v0a.06.06,0,0,1,0,0c.05,0,.11,0,.08-.08a.06.06,0,0,0,.08,0s0,0,0,0A.25.25,0,0,1,2,1.49H2s0,0,0,0,0,0,.05,0l.12,0,0,0,.15,0H2.6a.45.45,0,0,0,.11,0s0,0,0,0v0l.08,0h0l.07,0,.08,0s0,0,0,0v0l.08,0,0,0a.25.25,0,0,1,.13,0s0,0,0,0,.08,0,.12,0,0,0,0,0a.11.11,0,0,0,.11,0l.07,0s0,.05.08,0h.11s0,0,0,0h.11l.1,0s0,0,0,.05l.08,0a.34.34,0,0,1,.1,0h.12a0,0,0,0,0,0,0h.24a0,0,0,0,1,0,0h.07a1,1,0,0,0,.17,0,.28.28,0,0,1,.13,0H5s0,0,0,0h.1s0,0,0,0,0,0,0,0H5.2l0,0h0l0,0a0,0,0,0,1,0,0s0,.05,0,0,0,0,0,0h.17s0,0,0,0v0h.06s0,0,0,0h0a.41.41,0,0,1,.11,0h.17l0,0s0,0,0,0H6l0,0c.06-.05.12,0,.19,0s-.09,0-.13,0c.12,0,.22,0,.33,0h0s.07,0,.09,0a0,0,0,0,1,0,0l.07,0v0l0,0h0v.05a1.4,1.4,0,0,1,.29,0h0s.06,0,.1,0a.06.06,0,0,0,.06,0,.14.14,0,0,1,.11,0h0L7,1.39s0,0,0,0,0,0,0,0h.06l0,0,0,0h.27l0,0h.07a.35.35,0,0,0,.11,0h0l0,0s-.08,0-.11,0l.11,0,.08,0h.2s0,0,0,0H8a.57.57,0,0,0,.13,0c.07,0,.13,0,.2,0a.54.54,0,0,1,.18,0l.1,0a0,0,0,0,1,0,0h.18l0,0h0l.06,0h0s.05,0,.08,0l0,0H9.2c0-.05,0,0,.06,0h.09s0,0,.05,0,.06,0,.09,0v0h0a0,0,0,0,1,.05,0h.13v0H9.61a.19.19,0,0,0,.13,0s0,0,.06,0,0,0,.06,0,.07,0,.11,0,0,0,0,0a.07.07,0,0,1,.11,0h.12l0-.05v0h0s0,0,0,0h.19s.06,0,.08,0v0h.17l0,0h0l.1,0s-.06,0,0,.05,0,0,.07,0l0,0h0l0,0h.08s0,0,0,0h0l0,0h.3v0h.36v0h0l.05,0h.07v0h0a0,0,0,0,1,0,0h.1l-.07,0s0,0,0,0,.08,0,.1,0,.08,0,.12,0,.06,0,.06-.05.15.05.23,0h0l.21,0h0s0,0,.05,0h.3l-.05,0h.06l0,0a.19.19,0,0,0,.1,0s.09,0,.14,0a1.13,1.13,0,0,1,.26,0c.05,0,.08,0,.11,0l.09,0h0l0,0s0,0,0,0,0,0,0,0h0v0l.11,0a.11.11,0,0,0,.11,0s.05,0,.09,0l-.06,0,0,0,0,0h0l0,0h0a.53.53,0,0,0,.12,0,0,0,0,0,1,.06,0h.18l0,0h0s.13,0,.15,0,0,0,.07,0h0l0-.05h0a.36.36,0,0,0,.23.05h0s0,0,0,0h0a.15.15,0,0,0,.13,0h0a.25.25,0,0,0,.23,0h-.05l.12,0h0l0,.05h.19s.05,0,.06,0h0l0,0v0l.13,0a.25.25,0,0,1,0-.07s.05,0,.07,0a.07.07,0,0,0,.1,0h0s0,0,0,0,.16,0,.23,0a.05.05,0,0,0,0,0c.06,0,.07,0,.07,0h.13l0,0h.11s0,0,0,0h0l.19,0s0-.05.08,0l0,0h.31V1.4l0,0,.05,0a.65.65,0,0,0,.14,0c.05,0,.09,0,.13,0h.21l0,0,.08,0H18s.06,0,.1,0l.11,0s0,0,0,0a0,0,0,0,1,0,0s0,0,0,0a.33.33,0,0,0,.14,0,.22.22,0,0,0,.14,0h0s0,0,0,0h.07l0,0h.11c0,.05,0,0,.05,0V1.39a.21.21,0,0,1,.17.05h.16s0,0,.07,0l0,0,.18,0h-.06l.07,0c0,.05.05,0,.06.05h0l.1.07h0l.06.05v0s0,0,0,.06,0,0,.05,0h0v0l-.08,0c.07,0,0,.07,0,.11h0l.05.07h0l0,0h0v0h0l0,0h0a.19.19,0,0,0,0,.08s0,0,0,.06h0s0,0,0,0,0,0,0,0l-.05,0v0s0,0,0,0,0,0,0,0a0,0,0,0,1,0,0v0h0v0h0a.08.08,0,0,0,0,.11s0,0,0,0v.12h.07s0,0,0,0V3s0,0,0,.06,0,0,0,.07h0a.29.29,0,0,0,0,.09h0s-.06,0,0,.06a.21.21,0,0,1,0,.08.49.49,0,0,0,0,.12h0a.21.21,0,0,1,0,.06l0,0a.25.25,0,0,0,0,.07h0s0,0,0,.06,0,0,0,.06,0,0,0,0,0,.06,0,.09h0l.09.08-.08,0v.16Z"/><path class="cls-3" d="M16.08,9.6l0,0h-.06s.06,0,0-.08l0,0h0s0,0,0-.08l0-.07,0,0,0,0,0,0h0l0,0s0,0,0,0l.07,0h0l0,0-.06,0,.06,0a1.62,1.62,0,0,0,0-.22h0l0,0h0v0h-.05s0,0,0,0h.05s0,0,0,0,0,0,0-.05h0a.61.61,0,0,1-.05-.12l0,0,0,0s0-.06.06-.1H16l.07-.06-.05,0,.05,0s0,0,0,0a0,0,0,0,0,0,0l-.07,0,0,0,.05,0H16A.2.2,0,0,0,16.11,8h-.05l0,0,0,0v0h0V7.8s0,0-.05,0l0,0a.08.08,0,0,1,0,0s0,0-.06,0h.06l-.06,0h0s0,0,0,0l0,0h-.05l.05,0c-.05,0,0,0,0-.06s0,0,0-.05h0v0s0,0,0-.06,0,0,0-.08h0s0,0,0-.08h0s0,0,0-.06a.09.09,0,0,0,0,0l0,0h-.06l0,0H16l.08,0,0,0h0a.64.64,0,0,1,0-.07h0s.05,0,0,0h0s0,0,0,0h-.05l.06,0h0l-.08,0s0,0,.08,0,0,0,0,0,0-.09,0-.12,0,0,0,0h0s0-.05,0-.07h-.05c.05,0,.05,0,0-.06l0,0h0V6.09l-.06,0s.09,0,.06,0h0V6l0,0h0s0,0,0-.09a.43.43,0,0,0,0,0h-.06l.05,0,0,0,0,0,0,0,0,0h0l0,0h.05s0,0,0-.07h0V5.42h-.05l0,0a.07.07,0,0,0,0-.09.43.43,0,0,0,0,0h-.05l.06,0v0h-.05s0,0,0-.07,0,0,0,0l0,0,0,0s0,0,0-.06h0a.11.11,0,0,0,0,0l0,0h0s0,0,0,0,0,0,0-.07h0a.07.07,0,0,0,0-.11v0H16l.08,0h0l.05,0h0a.14.14,0,0,1,0-.06s0,0,0,0V4.31h0c.06,0,0-.1,0-.15h.05l-.05,0c.05,0,0,0,0-.08h0s.06-.09,0-.14l0,0h-.05c.07,0,.05,0,.05-.07h0a0,0,0,0,1,0,0s0-.07,0-.11h-.05l0,0a.41.41,0,0,1,0-.11l0,0,0,0,0,0,0,0h.06a0,0,0,0,1,0,0h0s0,0,0-.05l.06,0-.05,0,0,0h0l.07,0-.05-.06H16l.1,0s0-.06,0-.07,0,0,0-.06,0-.05,0-.07h0l0,0h.05a.11.11,0,0,1,0-.06h0s0,0,0-.06l-.05,0c.05,0,.06,0,.05-.07a.27.27,0,0,1,0-.09v0h0l0,0s0-.05,0-.08l0,0,0,0s0-.07,0-.09,0-.09,0-.14h-.06l0,0s.05-.06,0-.11v0s0,0,0-.05,0,0,0,0,0-.05,0-.07-.05,0-.05-.07h.05a.09.09,0,0,1,0-.05h0a.08.08,0,0,0,0-.08l-.06-.06s-.08,0-.07,0-.05.08-.12.05,0,0,0,0h0l-.06.06h0v0a.28.28,0,0,0,0,.09h0l0,0s.05,0,0,0l.07,0h-.07a.12.12,0,0,1,0,.13h0v0h0a.29.29,0,0,0,0,.09h0v.07l0,0s0,0,0,.07h.05s-.05,0-.05.1,0,0,.08.06h0l-.05,0h.05l-.06,0h.07s0,0,0,0,0,0,0,0l0,0s0,.06.05.06h-.05l0,0c-.05,0,0,.06,0,.11h.05l0,0,0,0-.05,0h.05l-.05,0s0,.06,0,.06a.06.06,0,0,0,0,.08.07.07,0,0,1,0,.06c.06,0,.07,0,.05,0h0v0s0,0,0,.08a.14.14,0,0,1,0,.06s0,0,0,0l-.05,0h0v0h0s.06,0,.05,0l0,0h0v.06l0,0,0,0s0,.06.05,0v0h-.06s0,0,0,.05,0,0,0,.06,0,.08,0,.12.06,0,0,0h0v.08h0v0h0l0,.06s-.05,0-.05,0a.1.1,0,0,1,.05,0h0v.08h.05v0c-.07,0-.05,0-.05.08h0l0,0a.28.28,0,0,0,0,.09s0,.07,0,.1l0,0-.05,0,0,0s0,.07,0,.1l0,0s.06,0,.07,0h-.05s0,0,0,0l0,0,0,0,0,0h-.05V5.2h0l0,0,.05,0h0a.41.41,0,0,1,0,.11l.06,0,0,0v0h0v.07h0v0l0,0c-.05,0,0,.05,0,.08s0,0,0,0,0,0,0,0,0,0,0,.07h-.05a.43.43,0,0,0,0,.07h0a.31.31,0,0,1,0,.1s0,0,0,.06,0,.06.06,0h0l-.07,0,0,0,0,0,.05,0,0,0h.06l-.05.06h.06a.2.2,0,0,0,0,0h-.06a.29.29,0,0,0,0,.09h0s0,0,0,0,0,0,.06.05l-.1,0h0s0,0,0,0l0,0s0,0,.05,0h0l0,0v0l.05,0c-.09,0,0,.07-.05.11h.05l-.06,0,.05,0h0s0,.06,0,.08l0,.05h.05l0,0s0,0,0,0l-.05,0,0,0,0,0,0,0-.05,0,.07,0h-.06l0,0h0v.08a0,0,0,0,1,0,0s0,0,0,0h.08l-.08,0h0s0,0,0,0h0v0l-.09,0s0,.06,0,.07,0,0,0,0h-.06l0,0,0,0,.05,0-.05,0s0,.06,0,.11,0,0,.06.08l-.06,0,.05,0h0l-.06,0v0l.05,0h0s0,0,0,0a.05.05,0,0,1,0,.08v0c0,.05,0,.09,0,.14l0,0a.06.06,0,0,0,0,.06l0,0s0,0,0,0l0,0c-.05,0-.06,0-.05.08h0s-.06,0,0,.06h.06s-.08,0-.07.11l0,0h0l0,0h0V9s0,0,0,0,0,.09,0,.13h0a.49.49,0,0,1,0,.12s0,0,0,.05l0,0,0,0,0,0h.06s0,0-.06.05l.06,0-.05,0s0,0,0,0,0,0,0,.08,0,0,0,0,0,0,.06,0,.12,0,.16,0A.06.06,0,0,1,16.08,9.6Z"/><path class="cls-3" d="M17.39,8.05A.39.39,0,0,1,17.11,8,.32.32,0,0,1,17,7.73a.28.28,0,0,1,.1-.22.31.31,0,0,1,.22-.09.62.62,0,0,1,.26.06l.23.15.14.1.05,0,.08,0h0V7.44h.19v.62h-.18L18.06,8,18,8l-.08,0-.19-.14a1.1,1.1,0,0,0-.23-.13.28.28,0,0,0-.15,0,.17.17,0,0,0-.1,0,.14.14,0,0,0-.05.1.13.13,0,0,0,.1.11h.12v.19Z"/><path class="cls-3" d="M17,6.7h.2L18.31,7v.19l-1.09-.28v.4H17Z"/><path class="cls-3" d="M17,6.28a.29.29,0,0,1,.09-.22A.33.33,0,0,1,17.32,6H18a.29.29,0,0,1,.22.09.26.26,0,0,1,.09.21.29.29,0,0,1-.09.21.33.33,0,0,1-.22.08h0v-.2h0a.1.1,0,0,0,.08,0,.07.07,0,0,0,0-.07.08.08,0,0,0,0-.07.1.1,0,0,0-.08,0h-.25a.24.24,0,0,1,.06.15.21.21,0,0,1-.09.19.38.38,0,0,1-.22.06H17.3A.3.3,0,0,1,17,6.39.2.2,0,0,1,17,6.28Zm.31-.11a.11.11,0,0,0-.08,0,.1.1,0,0,0,0,.07.08.08,0,0,0,0,.07.11.11,0,0,0,.08,0h.24a.15.15,0,0,0,.09,0,.11.11,0,0,0,0-.06.09.09,0,0,0-.08-.09h-.27Z"/><path class="cls-3" d="M17.84,5.85,17,5.5V5.31h.82V5.19H18v.12h.27V5.5H18v.35Zm0-.35h-.4l.4.17Z"/><path class="cls-3" d="M17.39,5.09a.4.4,0,0,1-.28-.1A.32.32,0,0,1,17,4.76a.28.28,0,0,1,.1-.22.31.31,0,0,1,.22-.09.62.62,0,0,1,.26.06l.23.15.14.1.05,0,.08,0h0V4.47h.19v.62h-.18l-.07,0L18,5l-.08,0-.19-.14a1.1,1.1,0,0,0-.23-.13.28.28,0,0,0-.15,0,.17.17,0,0,0-.1,0,.14.14,0,0,0-.05.1.13.13,0,0,0,.1.11h.12v.2Z"/><path class="cls-3" d="M18.13,4c0-.09,0-.14-.13-.14h-.07a.18.18,0,0,0-.2.21h-.17a.2.2,0,0,0-.06-.16.21.21,0,0,0-.16-.05h0c-.08,0-.12,0-.12.11a.1.1,0,0,0,0,.09l.1,0h0v.19h0a.31.31,0,0,1-.22-.07A.26.26,0,0,1,17,4a.28.28,0,0,1,.09-.22.3.3,0,0,1,.21-.08h.05a.32.32,0,0,1,.21.08s.05,0,.06.07a.41.41,0,0,1,.15-.14l.12,0H18a.32.32,0,0,1,.24.54.31.31,0,0,1-.22.09h0l0-.19H18A.1.1,0,0,0,18.13,4Z"/><path class="cls-3" d="M17,3h.2l1.09.27v.19l-1.09-.27v.39H17Z"/><path class="cls-3" d="M18.29,2.16a.48.48,0,0,1,0,.21.33.33,0,0,1-.36.34.35.35,0,0,1-.37-.37.66.66,0,0,1,0-.18l.1,0a.43.43,0,0,0,0,.15.24.24,0,0,0,.26.25.25.25,0,0,0,.27-.25.27.27,0,0,0,0-.15Z"/><rect class="cls-3" x="1.5" y="3.17" width="14.56" height="3.65"/><path class="cls-1" d="M4.43,5.46l-.07.46H4l.34-2H4.8l.33,2H4.81l-.07-.46Zm.16-1.08-.11.79H4.7Z"/><path class="cls-1" d="M6.33,5.44a.44.44,0,0,1-.14.34.45.45,0,0,1-.33.14H5.38v-2h.48a.48.48,0,0,1,.47.48Zm-.64.18h.18A.17.17,0,0,0,6,5.45v-1a.18.18,0,0,0,0-.12.21.21,0,0,0-.12,0H5.69Z"/><path class="cls-1" d="M6.9,5.92H6.6v-2H7l.28,1.44.27-1.44H8v2h-.3V4.66L7.43,5.92H7.19L6.9,4.67Z"/><path class="cls-1" d="M8.56,5.92h-.3v-2h.3Z"/><path class="cls-1" d="M9.13,4.23H8.81V3.92h.94v.31H9.43V5.92h-.3Z"/><path class="cls-1" d="M11.05,3.9a.44.44,0,0,1,.34.14.46.46,0,0,1,.14.34V5.47a.48.48,0,0,1-1,0V4.38A.46.46,0,0,1,10.71,4,.45.45,0,0,1,11.05,3.9Zm.16.47a.16.16,0,0,0,0-.12.17.17,0,0,0-.13,0,.15.15,0,0,0-.12,0,.17.17,0,0,0-.05.12V5.46a.21.21,0,0,0,.05.13.17.17,0,0,0,.12,0,.15.15,0,0,0,.17-.17Z"/><path class="cls-1" d="M12.13,3.92l.4,1.34V3.92h.3v2h-.32l-.42-1.28V5.92h-.3v-2Z"/><path class="cls-1" d="M13.1,5.92v-2H14v.3H13.4v.55h.41v.3H13.4v.55H14v.3Z"/></g></g></svg>